<mxfile host="app.diagrams.net" modified="2023-04-04T12:25:07.876Z" agent="Mozilla/5.0 (Windows NT 10.0; Win64; x64) AppleWebKit/537.36 (KHTML, like Gecko) Chrome/111.0.0.0 Safari/537.36" version="21.1.4" etag="q5GfD6blprVpl9VI6HIw" type="github">
  <diagram name="Page-1" id="O5JiAekVzFDAA72kUoiu">
    <mxGraphModel>
      <root>
        <mxCell id="0" />
        <mxCell id="1" parent="0" />
      </root>
    </mxGraphModel>
  </diagram>
</mxfile>
